<svg width="44" height="56" fill="none" xmlns="http://www.w3.org/2000/svg"><path d="M4 55v-1 1Zm36 0v1-1Zm3-3h-1 1Zm0-33.624h1-1Zm-.799-2.039-.733.68.733-.68ZM28.891 1.962l.733-.68-.733.68ZM26.688 1v1-1ZM4 1V0v1ZM1 4h1-1Zm0 48H0h1Zm42-32a1 1 0 1 0 0-2v2Zm-15-1v1-1ZM26 1a1 1 0 1 0-2 0h2ZM4 56h36v-2H4v2Zm40-4V18.376h-2V52h2Zm-1.065-36.342L29.625 1.282l-1.468 1.36 13.31 14.375 1.468-1.359ZM26.689 0H4v2h22.69V0ZM0 4v48h2V4H0Zm4-4a4 4 0 0 0-4 4h2a2 2 0 0 1 2-2V0Zm25.624 1.282A4 4 0 0 0 26.69 0v2a2 2 0 0 1 1.468.641l1.467-1.359ZM44 18.376a4 4 0 0 0-1.065-2.718l-1.468 1.359A2 2 0 0 1 42 18.376h2ZM40 56a4 4 0 0 0 4-4h-2a2 2 0 0 1-2 2v2ZM4 54a2 2 0 0 1-2-2H0a4 4 0 0 0 4 4v-2Zm39-36H28v2h15v-2Zm-17-2V1h-2v15h2Zm2 2a2 2 0 0 1-2-2h-2a4 4 0 0 0 4 4v-2Z" fill="#BF1238"/></svg>