<svg width="47" height="47" fill="none" xmlns="http://www.w3.org/2000/svg"><path d="M16.14 36.52v-1a1 1 0 0 0-1 1h1Zm14.72 0h1a1 1 0 0 0-1-1v1ZM4.592 31.085l.695.72-.695-.72Zm1.253-1.21.695.718-.695-.719Zm35.307 0 .695-.72-.695.72Zm1.254 1.21.694-.72-.694.72ZM23.5 3.338v1-1ZM38.852.192a1 1 0 1 0-1.177 1.616L38.852.192Zm6.236 10.704a1 1 0 0 0 1.824-.82l-1.824.82ZM9.325 1.808A1 1 0 0 0 8.148.193l1.177 1.616ZM.088 10.075a1 1 0 1 0 1.824.82l-1.824-.82ZM16.14 37.52h14.72v-2H16.14v2Zm13.72-1v2.37h2v-2.37h-2Zm-12.72 2.37v-2.37h-2v2.37h2ZM23.5 45c-3.545 0-6.36-2.768-6.36-6.11h-2c0 4.511 3.776 8.11 8.36 8.11v-2Zm6.36-6.11c0 3.342-2.815 6.11-6.36 6.11v2c4.584 0 8.36-3.599 8.36-8.11h-2Zm10.812-3.37H6.328v2h34.344v-2ZM4.875 34.15v-1.39h-2v1.39h2Zm.413-2.346 1.253-1.21-1.39-1.439-1.253 1.21 1.39 1.44Zm2.04-3.053v-8.823h-2v8.823h2Zm32.344-8.823v8.823h2v-8.823h-2Zm.786 10.665 1.254 1.211 1.39-1.438-1.254-1.211-1.39 1.438Zm1.667 2.168v1.388h2v-1.388h-2Zm-.413-.957c.268.26.413.605.413.957h2a3.33 3.33 0 0 0-1.024-2.395l-1.39 1.438Zm-2.04-3.053c0 .698.287 1.36.786 1.842l1.39-1.438a.562.562 0 0 1-.176-.404h-2Zm2-8.823c0-9.747-8.169-17.59-18.172-17.59v2c8.964 0 16.172 7.012 16.172 15.59h2Zm-34.344 0c0-8.578 7.208-15.59 16.172-15.59v-2c-10.004 0-18.172 7.843-18.172 17.59h2ZM6.54 30.593c.5-.482.787-1.144.787-1.842h-2c0 .145-.06.29-.176.404l1.39 1.438Zm-1.666 2.168c0-.352.144-.697.413-.957l-1.39-1.438a3.33 3.33 0 0 0-1.023 2.395h2Zm1.453 2.758c-.835 0-1.453-.645-1.453-1.37h-2c0 1.894 1.579 3.37 3.453 3.37v-2Zm34.344 2c1.874 0 3.453-1.476 3.453-3.37h-2c0 .725-.618 1.37-1.453 1.37v2ZM37.675 1.81c3.245 2.362 5.798 5.494 7.413 9.087l1.824-.82c-1.76-3.916-4.539-7.32-8.06-9.884l-1.177 1.616ZM8.148.191c-3.521 2.564-6.3 5.968-8.06 9.883l1.824.82C3.527 7.303 6.08 4.171 9.325 1.81L8.148.192Z" fill="#BF1238"/></svg>