<svg width="68" height="68" fill="none" xmlns="http://www.w3.org/2000/svg"><g filter="url(#Profile__a)"><path d="M42.43 30.84a11.19 11.19 0 0 0 3-7.5 11.34 11.34 0 1 0-22.68 0 11.19 11.19 0 0 0 3 7.5A17.821 17.821 0 0 0 16 44.67a3.018 3.018 0 0 0 6 .66 12 12 0 0 1 23.82 0A3 3 0 0 0 49 48h.33a3 3 0 0 0 2.64-3.3 17.82 17.82 0 0 0-9.54-13.86ZM34 28.68a5.34 5.34 0 1 1 0-10.679 5.34 5.34 0 0 1 0 10.679ZM55 0H13a9 9 0 0 0-9 9v42a9 9 0 0 0 9 9h42a9 9 0 0 0 9-9V9a9 9 0 0 0-9-9Zm3 51a3 3 0 0 1-3 3H13a3 3 0 0 1-3-3V9a3 3 0 0 1 3-3h42a3 3 0 0 1 3 3v42Z" fill="#BF1238"/></g><defs><filter id="Profile__a" x="0" y="0" width="68" height="68" filterUnits="userSpaceOnUse" color-interpolation-filters="sRGB"><feFlood flood-opacity="0" result="BackgroundImageFix"/><feColorMatrix in="SourceAlpha" values="0 0 0 0 0 0 0 0 0 0 0 0 0 0 0 0 0 0 127 0" result="hardAlpha"/><feOffset dy="4"/><feGaussianBlur stdDeviation="2"/><feComposite in2="hardAlpha" operator="out"/><feColorMatrix values="0 0 0 0 0 0 0 0 0 0 0 0 0 0 0 0 0 0 0.25 0"/><feBlend in2="BackgroundImageFix" result="effect1_dropShadow_3_32"/><feBlend in="SourceGraphic" in2="effect1_dropShadow_3_32" result="shape"/></filter></defs></svg>