<svg width="47" height="47" fill="none" xmlns="http://www.w3.org/2000/svg"><path d="M18.5 39.375a1 1 0 1 0 0 2v-2Zm27.5 2a1 1 0 1 0 0-2v2Zm-45-2a1 1 0 1 0 0 2v-2Zm7.5 2a1 1 0 1 0 0-2v2ZM7.5 46a1 1 0 1 0 2 0h-2Zm2-11.25a1 1 0 1 0-2 0h2Zm34-12.25a1 1 0 1 0 0 2v-2Zm2.5 2a1 1 0 1 0 0-2v2Zm-45-2a1 1 0 1 0 0 2v-2Zm32.5 2a1 1 0 1 0 0-2v2Zm-1 4.625a1 1 0 1 0 2 0h-2Zm2-11.25a1 1 0 1 0-2 0h2Zm-6-12.25a1 1 0 1 0 0 2v-2Zm17.5 2a1 1 0 1 0 0-2v2Zm-45-2a1 1 0 0 0 0 2v-2Zm17.5 2a1 1 0 1 0 0-2v2Zm-1 4.625a1 1 0 1 0 2 0h-2ZM19.5 1a1 1 0 1 0-2 0h2Zm-1 40.375H46v-2H18.5v2Zm-17.5 0h7.5v-2H1v2ZM9.5 46V34.75h-2V46h2Zm34-21.5H46v-2h-2.5v2ZM1 24.5h32.5v-2H1v2Zm33.5 4.625v-11.25h-2v11.25h2Zm-6-21.5H46v-2H28.5v2Zm-27.5 0h17.5v-2H1v2Zm18.5 4.625V1h-2v11.25h2Z" fill="#BF1238"/></svg>